<svg width="26" height="26" fill="none" xmlns="http://www.w3.org/2000/svg"><path fill-rule="evenodd" clip-rule="evenodd" d="M8.12 10.31c-2.202 2.382-2.155 6.158.14 8.497a5.833 5.833 0 004.194 1.778h.005a5.86 5.86 0 004.21-1.778c2.335-2.38 2.33-6.254-.01-8.632L13.424 6.87c-.327 2.689-1.336 5.048-3.132 5.048-.55 0-1.448-.244-2.172-1.608zm4.34 12.442h-.008a7.976 7.976 0 01-5.74-2.43c-3.157-3.217-3.162-8.452-.01-11.665l1.065-1.076a1.084 1.084 0 011.819.492c.249.963.545 1.436.709 1.616.385-.405 1.08-2.042 1.08-4.812 0-.16 0-.31-.009-.46-.02-.32.102-.633.334-.854.43-.409 1.12-.409 1.532.016l4.972 5.08c3.164 3.21 3.17 8.446.011 11.665a8.008 8.008 0 01-5.755 2.428z" fill="#000" opacity=".2"/></svg>