<svg width="26" height="26" fill="none" xmlns="http://www.w3.org/2000/svg"><path fill-rule="evenodd" clip-rule="evenodd" d="M15.523 21.667c-.072 0-.147-.003-.222-.01-.953-.095-1.7-.768-1.907-1.715L10.488 6.517 7.495 13.43a1.085 1.085 0 01-.995.653H3.25a1.083 1.083 0 110-2.167h2.54l2.714-6.271c.385-.884 1.232-1.399 2.195-1.302.953.094 1.7.767 1.907 1.715l2.906 13.424 2.994-6.914c.172-.396.562-.652.994-.652h3.25a1.082 1.082 0 110 2.167h-2.54l-2.714 6.27c-.354.816-1.114 1.313-1.973 1.313z" fill="#000" opacity=".2"/></svg>