<svg width="26" height="26" fill="none" xmlns="http://www.w3.org/2000/svg"><path fill-rule="evenodd" clip-rule="evenodd" d="M22.556 15.23a1.079 1.079 0 00-1.382.659A8.684 8.684 0 0113 21.666c-4.778 0-8.666-3.887-8.666-8.666a8.684 8.684 0 015.777-8.174 1.082 1.082 0 10-.721-2.041A10.85 10.85 0 002.167 13c0 5.973 4.86 10.833 10.833 10.833a10.85 10.85 0 0010.216-7.223 1.082 1.082 0 00-.66-1.38zm-7.39-4.397V4.41a7.601 7.601 0 016.424 6.423h-6.423zm-1.083-8.666C13.485 2.167 13 2.65 13 3.25v8.667c0 .599.485 1.083 1.083 1.083h8.667c.598 0 1.083-.484 1.083-1.083 0-5.377-4.374-9.75-9.75-9.75z" fill="#000" opacity=".2"/></svg>