<svg width="26" height="26" fill="none" xmlns="http://www.w3.org/2000/svg"><path fill-rule="evenodd" clip-rule="evenodd" d="M13 3.25a6.52 6.52 0 016.148 4.382A5.426 5.426 0 0123.833 13a5.412 5.412 0 01-1.354 3.585 1.084 1.084 0 11-1.624-1.436 3.243 3.243 0 00.811-2.15 3.254 3.254 0 00-3.25-3.25h-.108c-.516 0-.96-.363-1.062-.869A4.34 4.34 0 0013 5.417 4.338 4.338 0 008.754 8.88c-.102.506-.547.87-1.063.87h-.108A3.254 3.254 0 004.333 13c0 .793.288 1.558.813 2.15a1.083 1.083 0 11-1.624 1.435A5.407 5.407 0 012.166 13a5.426 5.426 0 014.686-5.368A6.522 6.522 0 0113 3.25zm1.084 15.864l1.413-1.365a1.084 1.084 0 011.506 1.559l-3.25 3.138a1.089 1.089 0 01-.753.304c-.277 0-.555-.105-.766-.318l-3.25-3.25a1.082 1.082 0 111.532-1.531l1.4 1.4V13a1.083 1.083 0 112.168 0v6.114z" fill="#000" opacity=".2"/></svg>