<svg width="26" height="26" fill="none" xmlns="http://www.w3.org/2000/svg"><path fill-rule="evenodd" clip-rule="evenodd" d="M8.667 10.833a1.626 1.626 0 10-.001-3.25 1.626 1.626 0 000 3.25zm10.833 9.75H7.108l7.589-6.332c.266-.226.75-.225 1.01 0l4.876 4.16V19.5c0 .598-.485 1.083-1.083 1.083zM6.5 5.417h13c.598 0 1.083.485 1.083 1.083v9.061l-3.47-2.96c-1.072-.912-2.75-.912-3.813-.006l-7.883 6.578V6.5c0-.598.485-1.083 1.083-1.083zm13-2.167h-13A3.254 3.254 0 003.25 6.5v13a3.254 3.254 0 003.25 3.25h13a3.254 3.254 0 003.25-3.25v-13a3.254 3.254 0 00-3.25-3.25z" fill="#000" opacity=".2"/></svg>