<svg width="26" height="26" fill="none" xmlns="http://www.w3.org/2000/svg"><path fill-rule="evenodd" clip-rule="evenodd" d="M7.583 17.333c0-.595.488-1.083 1.084-1.083.595 0 1.083.488 1.083 1.083 0 .596-.488 1.084-1.083 1.084a1.087 1.087 0 01-1.084-1.084zM13 16.25h4.333c.596 0 1.084.488 1.084 1.083 0 .596-.488 1.084-1.084 1.084H13a1.087 1.087 0 01-1.083-1.084c0-.595.487-1.083 1.083-1.083zm6.5 5.417h-13a1.085 1.085 0 01-1.083-1.084v-6.5h15.166v6.5c0 .597-.486 1.084-1.083 1.084zM6.5 6.5h1.083v1.083c0 .596.488 1.084 1.084 1.084.595 0 1.083-.488 1.083-1.084V6.5h6.5v1.083c0 .596.488 1.084 1.083 1.084.596 0 1.084-.488 1.084-1.084V6.5H19.5c.597 0 1.083.486 1.083 1.083v4.334H5.417V7.583c0-.597.486-1.083 1.083-1.083zm13-2.167h-1.083V3.25c0-.596-.488-1.083-1.084-1.083-.595 0-1.083.487-1.083 1.083v1.083h-6.5V3.25c0-.596-.488-1.083-1.083-1.083-.596 0-1.084.487-1.084 1.083v1.083H6.5a3.254 3.254 0 00-3.25 3.25v13a3.254 3.254 0 003.25 3.25h13a3.254 3.254 0 003.25-3.25v-13a3.254 3.254 0 00-3.25-3.25z" fill="#000" opacity=".2"/></svg>