<svg width="22" height="18" fill="none" xmlns="http://www.w3.org/2000/svg"><path fill-rule="evenodd" clip-rule="evenodd" d="M13.523 17.667c-.072 0-.147-.003-.222-.01-.953-.095-1.7-.768-1.907-1.716L8.488 2.518 5.495 9.43a1.085 1.085 0 01-.995.653H1.25a1.083 1.083 0 110-2.167h2.54l2.714-6.271C6.89.762 7.736.247 8.7.344c.953.094 1.7.767 1.907 1.715l2.906 13.424 2.994-6.914c.172-.396.562-.652.994-.652h3.25a1.082 1.082 0 110 2.167h-2.54l-2.714 6.27c-.354.816-1.114 1.313-1.973 1.313z" fill="#000"/></svg>